# xmcd
#
# Track frame offsets:
# 150
# 23165
# 40942
# 71132
# 93855
# 122095
# 142164
# 158582
# 173287
# 187776
# 202293
# 215834
# 235909
# 252299
# 267011
# 284739
# 314901
# 328435
#
# Disc length: 4686 seconds
#
#
# Revision: 0
# Processed by: cddbd v1.5.1PL2 Copyright (c) Steve Scherf et al.
# Submitted via: FreeRIP 2.94 
#
DISCID=19124c12
DTITLE=Jeová Nissi - Muito Poder
DYEAR=2005
DGENRE=Gospel
TTITLE0=Trono de Glória
TTITLE1=Teu Fluir
TTITLE2=Maravilhoso
TTITLE3=Mais Forte
TTITLE4=Yeshua, Yeshua
TTITLE5=Muito Poder
TTITLE6=Faça Tremer
TTITLE7=Basta
TTITLE8=Vamos Sacudir
TTITLE9=Eu Vou Agora Cantar
TTITLE10=Abençoado
TTITLE11=Muito Poder PB
TTITLE12=Faça Tremer PB
TTITLE13=Basta PB
TTITLE14=Teu Fluir PB
TTITLE15=Maravilhoso PB
TTITLE16=Abençoado PB
TTITLE17=Trono de Glória PB
EXTD=
EXTT0=
EXTT1=
EXTT2=
EXTT3=
EXTT4=
EXTT5=
EXTT6=
EXTT7=
EXTT8=
EXTT9=
EXTT10=
EXTT11=
EXTT12=
EXTT13=
EXTT14=
EXTT15=
EXTT16=
EXTT17=
PLAYORDER=
